<svg preserveAspectRatio="none" width="100%" height="100%" overflow="visible" style="display: block;" viewBox="0 0 15 12" fill="none" xmlns="http://www.w3.org/2000/svg">
<g id="Logo_of_UNICEF 1" clip-path="url(#clip0_7837_77551)">
<path id="Vector" d="M7.24986 0C4.82129 0 2.82129 1.96429 2.82129 4.42857C2.82129 6.85714 4.78557 8.85714 7.24986 8.85714C9.67843 8.85714 11.6784 6.89286 11.6784 4.42857C11.6784 1.96429 9.67843 0 7.24986 0ZM10.6784 1.96429C10.4641 2.10714 10.2141 2.25 9.96415 2.39286C9.82129 2.10714 9.64272 1.82143 9.42843 1.57143C9.607 1.46429 9.78557 1.32143 9.92843 1.21429C10.2499 1.39286 10.4999 1.67857 10.6784 1.96429ZM8.82129 0.5C9.17843 0.642857 9.49986 0.821429 9.82129 1.07143C9.67843 1.21429 9.49986 1.32143 9.32129 1.42857C9.107 1.17857 8.857 0.964286 8.607 0.75C8.67843 0.642857 8.74986 0.571429 8.82129 0.5ZM9.17843 1.5C8.92843 1.64286 8.67843 1.71429 8.42843 1.82143C8.32129 1.57143 8.21415 1.32143 8.07129 1.10714C8.21415 1.03571 8.357 0.964286 8.46414 0.857143C8.71414 1.03571 8.96414 1.25 9.17843 1.5ZM8.64272 0.428571C8.57129 0.5 8.49986 0.571429 8.46414 0.642857C8.21414 0.5 7.99986 0.357143 7.71415 0.25C8.03557 0.25 8.357 0.321429 8.64272 0.428571ZM8.32129 0.75C8.21414 0.821429 8.107 0.892857 7.99986 0.928571C7.857 0.714286 7.71414 0.535714 7.57129 0.321429C7.82129 0.428571 8.07129 0.571429 8.32129 0.75ZM7.32129 0.357143C7.49986 0.535714 7.64272 0.75 7.78557 1C7.64272 1.03571 7.49986 1.07143 7.32129 1.07143V0.357143ZM7.32129 1.25C7.49986 1.25 7.71415 1.21429 7.89272 1.14286C8.03557 1.35714 8.14272 1.60714 8.24986 1.85714C7.96415 1.92857 7.64272 1.96429 7.32129 2V1.25ZM7.14272 0.357143V1.07143C6.99986 1.07143 6.857 1.03571 6.67843 1C6.857 0.785714 6.99986 0.571429 7.14272 0.357143ZM6.53557 0.928571C6.42843 0.892857 6.28557 0.821429 6.21415 0.75C6.46415 0.607143 6.71415 0.464286 6.96415 0.357143C6.78557 0.535714 6.64272 0.714286 6.53557 0.928571ZM6.78557 0.214286C6.53557 0.321429 6.28557 0.464286 6.03557 0.607143C5.96415 0.535714 5.89272 0.464286 5.857 0.392857C6.14272 0.321429 6.46415 0.25 6.78557 0.214286ZM9.82129 7.78571C9.24986 7.46429 9.21415 7 9.24986 6.85714C9.28557 6.67857 9.39272 6.75 9.46415 6.75C9.857 6.75 10.2499 6.64286 10.7499 6.10714C11.3213 5.53571 11.4999 4.25 10.607 3.42857C9.67843 2.53571 8.67843 2.67857 8.03557 3.5C7.89272 3.67857 7.57129 3.78571 7.32129 3.78571C6.89272 3.78571 7.17843 4.10714 7.17843 4.17857C7.17843 4.25 7.107 4.28571 7.07129 4.28571C6.92843 4.25 6.99986 4.46429 6.99986 4.5C6.99986 4.53571 6.92843 4.60714 6.92843 4.60714C6.74986 4.60714 6.78557 4.75 6.82129 4.82143C6.82129 4.85714 6.82129 4.92857 6.74986 4.96429C6.67843 5 6.64272 5.14286 6.64272 5.25C6.64272 5.42857 6.82129 5.57143 7.107 5.78571C7.39272 6 7.42843 6.21429 7.42843 6.35714C7.42843 6.5 7.46415 6.75 7.49986 6.89286C7.57129 7.07143 7.57129 7.42857 7.17843 7.42857C6.67843 7.46429 5.82129 7.82143 5.74986 7.85714C5.46415 7.96429 5.107 8 4.82129 7.92857C4.67843 7.82143 4.53557 7.71429 4.39272 7.57143C4.32129 7.39286 4.42843 7.17857 4.53557 7.03571C4.71414 7.21429 4.92843 7.17857 5.07129 7.17857C5.21414 7.17857 5.857 7.07143 5.96414 7.03571C6.07129 7 6.107 7 6.14272 7.03571C6.39272 7.14286 6.74986 7.14286 6.89272 6.67857C7.03557 6.17857 6.71415 6.32143 6.64272 6.35714C6.607 6.39286 6.53557 6.35714 6.57129 6.32143C6.64272 6.21429 6.53557 6.21429 6.49986 6.21429C6.357 6.21429 6.17843 6.35714 6.14272 6.39286C6.07129 6.42857 6.03557 6.42857 5.99986 6.42857C5.82129 6.32143 5.28557 6.46429 5.107 6.17857C5.107 6.10714 4.96414 4.92857 4.89272 4.71429C4.89272 4.67857 4.857 4.60714 4.92843 4.53571C5.07129 4.32143 5.42843 4.53571 5.64272 4.53571C5.89272 4.53571 5.92843 4.42857 5.99986 4.35714C6.07129 4.28571 6.107 4.32143 6.14272 4.28571C6.17843 4.25 6.14272 4.21429 6.14272 4.17857C6.14272 4.14286 6.17843 4.17857 6.21415 4.14286C6.24986 4.10714 6.21415 4.03571 6.21415 4C6.28557 3.89286 6.42843 3.96429 6.357 3.75C6.32129 3.60714 6.39272 3.46429 6.46415 3.39286C6.57129 3.25 7.03557 2.60714 6.24986 1.92857C5.49986 1.28571 4.71414 1.35714 4.21414 1.89286C3.71414 2.42857 3.96414 3.21429 3.99986 3.42857C4.03557 3.64286 3.89272 3.82143 3.71415 3.89286C3.57129 3.96429 3.24986 4.17857 3.03557 4.35714C3.07129 2.64286 4.107 1.14286 5.67843 0.535714C5.74986 0.607143 5.82129 0.714286 5.89272 0.785714C5.71415 0.928571 5.32129 1.25 5.32129 1.25C5.32129 1.25 5.357 1.25 5.42843 1.28571C5.46414 1.28571 5.53557 1.32143 5.53557 1.32143C5.53557 1.32143 5.857 1.03571 6.03557 0.928571C6.14272 1.03571 6.28557 1.10714 6.42843 1.17857C6.357 1.32143 6.14272 1.67857 6.14272 1.67857C6.14272 1.67857 6.17843 1.71429 6.21415 1.71429C6.24986 1.75 6.28557 1.75 6.28557 1.75C6.28557 1.75 6.49986 1.35714 6.57129 1.21429C6.74986 1.28571 6.92843 1.32143 7.107 1.32143V2.03571C6.99986 2.03571 6.74986 2.03571 6.64272 2H6.57129L6.607 2.07143C6.64272 2.10714 6.64272 2.14286 6.67843 2.17857C6.74986 2.17857 6.99986 2.17857 7.107 2.17857V3.5H7.28557V3.17857C7.57129 3.17857 7.78557 3.14286 8.03557 3.10714L8.28557 2.89286H8.14272C7.857 2.92857 7.607 2.96429 7.39272 2.96429C7.39272 2.96429 7.32129 2.96429 7.28557 2.96429V2.14286C7.607 2.14286 7.96414 2.10714 8.28557 2C8.357 2.21429 8.53557 2.75 8.53557 2.75L8.71415 2.67857C8.71415 2.67857 8.53557 2.14286 8.46414 1.92857C8.74986 1.85714 8.99986 1.71429 9.24986 1.60714C9.46415 1.85714 9.64272 2.14286 9.78557 2.42857C9.64272 2.5 9.42843 2.57143 9.42843 2.57143C9.607 2.60714 9.74986 2.64286 9.74986 2.64286C9.74986 2.64286 9.82129 2.60714 9.857 2.60714C9.857 2.64286 9.89272 2.71429 9.89272 2.71429L10.1427 2.82143L10.107 2.75C10.107 2.75 10.0356 2.57143 9.99986 2.53571C10.2499 2.42857 10.4999 2.28571 10.7499 2.10714C11.2141 2.78571 11.4284 3.60714 11.4284 4.42857C11.4999 5.78571 10.8213 7 9.82129 7.78571Z" fill="var(--fill-0, white)"/>
<path id="Vector_2" d="M2.42846 1.17848L2.35703 1.2499C2.10703 1.46419 1.49989 2.07133 1.60703 2.7499V2.78562L1.64274 2.92848L1.71417 2.85705C2.07132 2.53562 2.35703 1.96419 2.46417 1.32133L2.49989 1.14276L2.42846 1.17848Z" fill="var(--fill-0, white)"/>
<path id="Vector_3" d="M1.21441 2.32142L1.1787 2.39285C1.14298 2.49999 1.07156 2.74999 1.03584 3.03571C0.964413 3.46428 1.00013 4.10713 1.35727 4.57142L1.39298 4.64285L1.4287 4.71428L1.50013 4.42856C1.57155 3.92856 1.46441 2.89285 1.28584 2.42856L1.21441 2.28571V2.32142Z" fill="var(--fill-0, white)"/>
<path id="Vector_4" d="M0.785744 4.10708V4.17851C0.75003 4.60708 0.785744 5.71423 1.6786 6.32137L1.78575 6.3928V6.24994C1.78575 5.82137 1.28574 4.57137 0.928602 4.1428L0.821458 3.99994L0.785744 4.10708Z" fill="var(--fill-0, white)"/>
<path id="Vector_5" d="M0.928711 6.07143V6.14286C1.07157 6.78571 1.643 7.78571 2.57157 8.10714L2.71443 8.14286L2.67871 8C2.50014 7.53571 1.60728 6.42857 1.03585 6.07143L0.928711 6V6.07143Z" fill="var(--fill-0, white)"/>
<path id="Vector_6" d="M2.82174 2.14289L2.7146 2.17861C2.03603 2.60718 1.7146 3.10718 1.7146 3.75003V3.89289L1.82174 3.82146C2.17889 3.50003 2.67889 2.71432 2.78603 2.28575L2.82174 2.10718V2.14289Z" fill="var(--fill-0, white)"/>
<path id="Vector_7" d="M2.39296 3.50007L2.35725 3.5715C2.17867 3.75007 1.60725 4.35721 1.64296 5.10721C1.64296 5.21436 1.67867 5.35721 1.71439 5.46436L1.7501 5.5715L1.82153 5.46436C2.10725 5.0715 2.46439 4.0715 2.42867 3.60721V3.46436L2.39296 3.50007Z" fill="var(--fill-0, white)"/>
<path id="Vector_8" d="M2.42864 4.82136L2.39293 4.89279C2.10721 5.32136 1.96436 5.74993 1.96436 6.1785C1.96436 6.46422 2.0715 6.74993 2.25007 7.03564L2.3215 7.14279L2.35721 7.03564C2.46435 6.78564 2.5715 6.03564 2.5715 5.4285C2.5715 5.21422 2.53578 5.03564 2.50007 4.9285L2.46436 4.78564L2.42864 4.82136Z" fill="var(--fill-0, white)"/>
<path id="Vector_9" d="M2.75026 6.21425L2.71454 6.28568C2.64312 6.57139 2.57169 6.82139 2.6074 7.10711C2.6074 7.67854 2.89312 8.14282 3.39312 8.46425L3.46454 8.49996L3.50026 8.39282V8.28568C3.50026 7.82139 3.14312 6.60711 2.8574 6.24996L2.78597 6.14282L2.75026 6.21425Z" fill="var(--fill-0, white)"/>
<path id="Vector_10" d="M1.78547 8.07148L1.82118 8.14291C2.17833 8.75005 2.82118 9.57148 3.99975 9.3572H4.1069L4.03547 9.28577C3.82118 8.96434 2.39261 8.14291 1.89261 8.07148L1.74976 8.03577L1.78547 8.07148Z" fill="var(--fill-0, white)"/>
<path id="Vector_11" d="M3.53526 9.6429L3.35669 9.67861L3.53526 9.75004C4.28526 10.0715 5.21383 10.1429 5.78526 9.96432C5.99955 9.89289 6.10669 9.78575 6.24955 9.6429C7.21383 9.75004 8.10669 10.5358 8.6424 11.1786L8.67812 11.2143H8.71383C8.78526 11.1786 8.85669 11.1072 8.8924 11.0715L8.92812 11.0358L8.8924 11C8.35669 10.2858 7.49955 9.85718 7.46383 9.82147C6.67812 9.46432 5.32098 9.17861 3.53526 9.6429Z" fill="var(--fill-0, white)"/>
<path id="Vector_12" d="M3.57111 7.64283V7.71426C3.67826 8.42855 3.96397 9.35712 5.17826 9.24997H5.24968L5.21397 9.17855C5.14254 8.85712 4.0354 7.92855 3.64254 7.67855L3.5354 7.60712L3.57111 7.64283Z" fill="var(--fill-0, white)"/>
<path id="Vector_13" d="M12 1.10706L12.0357 1.28563C12.1429 1.92848 12.4286 2.49991 12.7857 2.82134L12.8571 2.89277L12.8929 2.74991V2.7142C13 2.03563 12.3929 1.42848 12.1429 1.2142L12.0714 1.14277L12 1.10706Z" fill="var(--fill-0, white)"/>
<path id="Vector_14" d="M13.2497 2.25L13.1783 2.39286C12.9997 2.85714 12.9283 3.89286 12.964 4.39286L13.0354 4.67857L13.0712 4.64286L13.1069 4.57143C13.4997 4.10714 13.4997 3.5 13.4283 3.03571C13.3926 2.71429 13.3212 2.5 13.2854 2.39286L13.2497 2.32143V2.25Z" fill="var(--fill-0, white)"/>
<path id="Vector_15" d="M13.7143 4.03564L13.6071 4.1785C13.25 4.64279 12.75 5.85707 12.75 6.28564V6.4285L12.8571 6.35707C13.75 5.78564 13.7857 4.6785 13.75 4.21422V4.14279L13.7143 4.03564Z" fill="var(--fill-0, white)"/>
<path id="Vector_16" d="M13.5709 6L13.4281 6.07143C12.8567 6.42857 11.9638 7.53571 11.7852 8L11.7495 8.14286L11.8924 8.10714C12.8209 7.82143 13.4281 6.78571 13.5352 6.14286V6.07143L13.5709 6Z" fill="var(--fill-0, white)"/>
<path id="Vector_17" d="M11.6785 2.07147L11.7142 2.25004C11.857 2.71433 12.2856 3.50004 12.6785 3.82147L12.7856 3.8929V3.75004C12.8213 3.10719 12.4999 2.60719 11.8213 2.17861L11.7499 2.1429L11.6785 2.07147Z" fill="var(--fill-0, white)"/>
<path id="Vector_18" d="M12.0711 3.46436V3.60721C12.0354 4.0715 12.4283 5.10721 12.6783 5.46436L12.7497 5.5715L12.7854 5.46436C12.8211 5.3215 12.8568 5.21436 12.8568 5.10721C12.8926 4.35721 12.3211 3.75007 12.1426 3.5715L12.1068 3.53578L12.0711 3.46436Z" fill="var(--fill-0, white)"/>
<path id="Vector_19" d="M12.0354 4.74994L11.9997 4.8928C11.9639 4.99994 11.9282 5.17851 11.9282 5.3928C11.9282 5.99994 11.9997 6.74994 12.1425 6.99994L12.1782 7.10708L12.2496 6.99994C12.4282 6.74994 12.5354 6.46422 12.5354 6.1428C12.5354 5.74994 12.3925 5.28565 12.1068 4.85708L12.0711 4.78565L12.0354 4.74994Z" fill="var(--fill-0, white)"/>
<path id="Vector_20" d="M11.7145 6.14282L11.6431 6.24996C11.3574 6.60711 11.0002 7.82139 11.0002 8.28568C11.0002 8.28568 11.0002 8.35711 11.0002 8.39282L11.036 8.49996L11.1074 8.46425C11.6074 8.14282 11.8574 7.67854 11.8931 7.10711C11.8931 6.85711 11.8574 6.57139 11.786 6.28568L11.7502 6.21425L11.7145 6.14282Z" fill="var(--fill-0, white)"/>
<path id="Vector_21" d="M12.7502 8.00006L12.6074 8.03578C12.1074 8.1072 10.6788 8.92863 10.4645 9.25006L10.3931 9.32149H10.5002C11.6788 9.53578 12.3216 8.71435 12.6788 8.1072L12.7145 8.03578L12.7502 8.00006Z" fill="var(--fill-0, white)"/>
<path id="Vector_22" d="M7.07171 9.82147C7.03599 9.82147 6.17885 10.2858 5.64314 11L5.60742 11.0358L5.64314 11.0715C5.67885 11.1072 5.78599 11.1786 5.82171 11.2143H5.85742L5.89314 11.1786C6.42885 10.5358 7.32171 9.71432 8.28599 9.6429C8.42885 9.78575 8.57171 9.89289 8.75028 9.96432C9.28599 10.1429 10.2503 10.0715 11.0003 9.75004L11.1789 9.67861L11.0003 9.6429C9.17885 9.17861 7.82171 9.46432 7.07171 9.82147Z" fill="var(--fill-0, white)"/>
<path id="Vector_23" d="M10.9289 7.57141L10.8217 7.64284C10.4289 7.89284 9.35746 8.82141 9.25032 9.14284L9.2146 9.21427H9.28603C10.4646 9.32141 10.7503 8.39284 10.8932 7.67855V7.60712L10.9289 7.57141Z" fill="var(--fill-0, white)"/>
<path id="Vector_24" d="M-19.2144 0.428467H-17.7144V1.78561H-19.2144V0.428467ZM-19.0715 3.35704H-17.8215V9.9999H-19.0715V3.35704Z" fill="var(--fill-0, white)"/>
<path id="Vector_25" d="M-28.5357 3.35724H-27.2857V10.0001H-28.5V9.03581H-28.5357C-29.0357 9.85724 -29.8929 10.2144 -30.8214 10.2144C-32.2143 10.2144 -33 9.14295 -33 7.82152V3.35724H-31.75V7.28581C-31.75 8.42867 -31.5 9.28581 -30.2857 9.28581C-29.7857 9.28581 -29.0714 9.03581 -28.8214 8.32152C-28.5714 7.71438 -28.5714 6.92867 -28.5714 6.7501V3.35724H-28.5357Z" fill="var(--fill-0, white)"/>
<path id="Vector_26" d="M-24.7861 4.32139C-24.3218 3.49997 -23.429 3.14282 -22.7504 3.14282C-22.2861 3.14282 -20.2504 3.24997 -20.2504 5.39282V9.96425H-21.5004V5.78568C-21.5004 4.67854 -21.9647 4.10711 -23.0361 4.10711C-23.0361 4.10711 -23.7147 4.07139 -24.2504 4.60711C-24.429 4.78568 -24.7861 5.07139 -24.7861 6.39282V9.99997H-26.0361V3.35711H-24.7861V4.32139Z" fill="var(--fill-0, white)"/>
<path id="Vector_27" d="M-12.5713 5.46425C-12.6428 4.64282 -13.0356 4.07139 -13.9285 4.07139C-15.107 4.07139 -15.5713 5.10711 -15.5713 6.64282C-15.5713 8.17854 -15.107 9.21425 -13.9285 9.21425C-13.107 9.21425 -12.607 8.67854 -12.5356 7.71425H-11.2856C-11.3928 9.21425 -12.4999 10.1071 -13.9642 10.1071C-16.0713 10.1071 -16.9285 8.60711 -16.9285 6.67854C-16.9285 4.74997 -15.9642 3.14282 -13.857 3.14282C-12.4642 3.14282 -11.4285 4.03568 -11.357 5.46425H-12.5713Z" fill="var(--fill-0, white)"/>
<path id="Vector_28" d="M-9.42906 6.89281C-9.5362 8.03567 -9.0362 9.24996 -7.7862 9.24996C-6.82192 9.24996 -6.32192 8.8571 -6.17906 7.89281H-4.85763C-5.07192 9.39281 -6.21477 10.1428 -7.7862 10.1428C-9.89335 10.1428 -10.7505 8.64281 -10.7505 6.71424C-10.7505 4.78567 -9.7862 3.17853 -7.67906 3.17853C-5.71477 3.21424 -4.7862 4.46424 -4.7862 6.28567V6.89281H-9.42906ZM-6.07192 6.03567C-6.0362 4.92853 -6.5362 4.07138 -7.75049 4.07138C-8.7862 4.07138 -9.39335 4.96424 -9.39335 6.03567H-6.07192Z" fill="var(--fill-0, white)"/>
<path id="Vector_29" d="M-3.35714 9.92854V4.21426H-4.5V3.35712H-3.35714V1.92855C-3.32143 0.499974 -2.21429 0.107117 -1.28571 0.107117C-1 0.107117 -0.678571 0.178545 -0.392857 0.249974V1.28569C-0.607143 1.28569 -0.82143 1.24997 -1.03572 1.24997C-1.75 1.24997 -2.14286 1.42855 -2.10714 2.14283V3.35712H-0.571428V4.21426H-2.10714V9.92854H-3.35714Z" fill="var(--fill-0, white)"/>
</g>
<defs>
<clipPath id="clip0_7837_77551">
<rect width="15" height="12" fill="white"/>
</clipPath>
</defs>
</svg>
