<svg preserveAspectRatio="none" width="100%" height="100%" overflow="visible" style="display: block;" viewBox="0 0 10.19 11.4063" fill="none" xmlns="http://www.w3.org/2000/svg">
<g id="vedantu-logo 1">
<g clip-path="url(#clip0_7837_77548)">
<path id="Vector" fill-rule="evenodd" clip-rule="evenodd" d="M45.243 8.80667C45.0566 8.80667 44.8963 8.96246 44.8161 9.32584L44.8127 9.34277C44.6537 10.0903 44.4904 10.8572 43.7751 10.8315C43.3213 10.8315 43.188 10.1825 43.2146 10.0267L43.2947 5.95127C43.3213 5.56187 43.0277 5.19844 42.6006 5.17251H42.4671C42.2269 5.17251 41.9066 5.22441 41.9066 5.35419C41.9066 5.39636 41.9263 5.42756 41.952 5.46823C42.0054 5.55287 42.0848 5.67853 42.0668 6.02914L42.0134 8.46921C42.0134 9.68927 41.2126 10.8055 40.5186 10.7796C40.5186 10.7796 38.9704 11.2468 39.878 6.10701C39.8931 6.03351 39.9168 5.95449 39.9407 5.87443C40.0437 5.53037 40.1524 5.16759 39.611 5.14654C38.85 5.12537 38.7798 5.36259 38.7077 5.60559C38.6913 5.66091 38.6748 5.71659 38.6501 5.76956C38.4899 6.96364 38.3832 8.15773 38.3565 9.37779V9.45566C38.1429 10.0787 37.8226 10.7017 37.2888 10.6757C36.915 10.6757 36.6748 10.4161 36.7015 9.87099L36.7816 4.5495C37.7158 4.57543 38.6501 4.57543 40.0915 4.57543C40.5453 4.57543 40.7588 2.9141 40.2249 3.40731C39.0238 3.43327 37.876 3.43327 36.8083 3.43327L36.835 1.79788C36.835 1.38255 36.4613 1.01913 35.874 1.01913C35.6338 1.01913 35.3135 1.07104 35.2868 1.20084C35.2773 1.24707 35.2983 1.28013 35.328 1.32701C35.3817 1.41171 35.4641 1.54153 35.4469 1.87576L35.4203 3.40731C34.4593 3.38136 33.8187 3.32944 33.8187 3.32944C33.3115 3.32944 33.6051 4.49756 34.1657 4.49756C34.5661 4.52353 34.9932 4.5495 35.3936 4.5495L35.3135 9.04033C35.1267 9.76714 34.7796 10.6757 34.139 10.6497C33.6852 10.6497 33.6852 10.0008 33.6852 9.84501L33.7386 6.60021C33.7653 5.79549 33.4717 4.83501 32.2972 4.83501C31.4163 4.80909 30.7757 5.56187 30.2685 6.52234V5.74359C30.2685 5.32826 29.8948 4.96483 29.3076 4.96483C29.0674 4.96483 28.8538 5.06867 28.8271 5.25039C28.8538 5.4321 28.8805 5.61381 28.8805 5.79549L28.8271 8.46921L28.7471 8.70287C28.5869 9.45566 28.2399 10.5719 27.5192 10.5459C27.0921 10.5459 26.9052 10.1306 26.9319 9.74121L26.9853 7.22323C26.9853 6.8079 26.6116 6.44447 26.0244 6.44447C25.7841 6.44447 25.5439 6.54831 25.5439 6.73003C25.5973 6.9117 25.5973 7.09341 25.5973 7.27513L25.5706 9.6114C25.3571 10.1046 25.0368 10.494 24.5563 10.494C23.9424 10.494 23.5419 9.94886 23.5686 9.04033C23.622 6.54831 25.2236 5.79549 26.5582 5.79549C26.6553 5.79549 26.7451 5.8095 26.8314 5.82296C26.9114 5.83543 26.9884 5.84743 27.0654 5.84743C27.2256 5.84743 27.3057 5.74359 27.3057 5.45803C27.3057 5.0427 26.9586 4.70524 26.5582 4.70524H26.5049C24.316 4.67927 22.234 6.05507 22.1806 8.96246C22.1806 9.09223 22.1806 9.22204 22.2073 9.35181C21.9938 9.92293 21.7002 10.4161 21.193 10.4161C20.8994 10.4161 20.6591 10.2084 20.6058 9.94886L20.7392 1.8498C20.7392 1.097 20.3922 0.733581 19.805 0.733581C19.5647 0.733581 19.2444 0.785499 19.2177 0.915291C19.2082 0.96153 19.2292 0.99459 19.2589 1.04146C19.3127 1.12617 19.395 1.25599 19.3779 1.59021L19.3245 4.65334C17.3759 4.88696 15.6943 6.05507 15.6409 8.70287V9.06626C15.2939 9.76714 14.7066 10.3383 13.719 10.3123C13.0784 10.3383 12.4644 9.97483 12.1708 9.40376C13.7991 8.46921 14.8668 7.50874 14.8935 6.34063C14.9202 5.30229 14.3062 4.57543 13.3186 4.5495C11.9573 4.52353 10.4892 5.87336 10.4625 8.07986C10.4625 8.44329 10.5159 8.80667 10.6227 9.1701C9.71507 9.87098 8.67407 10.4421 7.57967 10.8574C7.8759 9.54034 8.16797 8.28034 8.45919 7.02411C8.90263 5.11119 9.34401 3.20691 9.79517 1.12296C9.88521 0.838341 9.98001 0.64605 10.0475 0.5091C10.1401 0.321292 10.1814 0.237552 10.0888 0.162494C9.71507 -0.149009 8.62067 -0.0451749 8.46051 0.75954C8.0868 2.68047 7.52627 5.12057 7.0725 6.98957C6.35177 6.9117 5.60439 7.06749 4.99046 7.45684C4.48744 6.68811 3.89156 5.74633 3.28616 4.7895C2.76715 3.96918 2.24114 3.13781 1.76063 2.39493C1.36023 1.77192 0.265828 1.97959 0.0255927 2.39493C-0.0309517 2.49116 0.00982528 2.52915 0.112242 2.62456C0.203217 2.70931 0.342826 2.83937 0.506061 3.09581C1.23264 4.1557 1.88731 5.18229 2.5314 6.19226C3.68564 8.0022 4.80587 9.75887 6.24501 11.5583C6.43187 11.7919 6.75219 11.8958 7.0458 11.7919V11.8179L7.41951 11.6362L7.0725 11.8179C8.0868 11.6621 9.36806 11.117 11.023 10.1046C11.5302 11.0391 12.5445 11.5842 13.6122 11.5583C14.5465 11.6102 15.4807 11.2728 16.1214 10.5978C16.4951 11.2468 17.2158 11.6362 17.9631 11.6102C18.5504 11.6102 19.1376 11.3766 19.5647 10.9613C19.8584 11.4025 20.3655 11.6621 20.8994 11.6621C21.5934 11.6621 22.234 11.3247 22.6344 10.7796C22.9814 11.3506 23.622 11.7141 24.316 11.7141C24.9033 11.7141 25.4638 11.4804 25.8642 11.0391C26.1579 11.5064 26.665 11.766 27.2256 11.766C27.8395 11.766 28.4268 11.5064 28.8271 11.0391C28.8271 11.6621 29.3076 11.7919 29.6813 11.7919C30.1885 11.7919 30.1885 11.3766 30.1885 11.0651L30.2418 8.52116C30.402 7.14536 31.5231 6.02914 32.0303 6.02914C32.3773 6.02914 32.404 6.49637 32.3773 7.01554L32.3239 10.1825C32.2972 11.0651 32.8578 11.8179 33.792 11.8438C34.4593 11.8438 35.0733 11.5323 35.4736 11.0391C35.7139 11.5842 36.2744 11.9477 36.8883 11.8958C37.5824 11.8958 38.223 11.5842 38.6234 11.0391C38.8903 11.6102 39.5043 11.9736 40.1449 11.9736C40.919 11.9736 41.5062 11.4804 41.96 10.7536C42.0401 11.4804 42.654 11.9996 43.4014 11.9996C44.9494 12.0255 45.4834 10.8055 45.8306 9.66334C45.8571 9.6114 45.8571 9.58543 45.8571 9.53353C45.8571 9.19607 45.537 8.80667 45.243 8.80667ZM13.1852 5.71753C13.4255 5.71753 13.5589 5.95119 13.5589 6.34054C13.5322 7.37889 12.8115 7.89806 12.0108 8.39126C12.0108 8.33936 12.0041 8.28741 11.9974 8.23551C11.9907 8.18361 11.9841 8.13167 11.9841 8.07977C11.9574 7.32699 12.3044 5.71753 13.1852 5.71753ZM18.2835 10.5196C18.7373 10.4937 19.1376 10.2341 19.3245 9.84471L19.4046 5.56157C18.2301 5.76921 17.1357 6.54797 17.109 8.7285C17.0823 9.97453 17.6695 10.5196 18.2835 10.5196Z" fill="var(--fill-0, white)"/>
</g>
</g>
<defs>
<clipPath id="clip0_7837_77548">
<path d="M0 0H10.19V6.40628C10.19 9.1677 7.95143 11.4063 5.19001 11.4063H0V0Z" fill="white"/>
</clipPath>
</defs>
</svg>
