<svg preserveAspectRatio="none" width="100%" height="100%" overflow="visible" style="display: block;" viewBox="0 0 11.3413 9.58214" fill="none" xmlns="http://www.w3.org/2000/svg">
<g id="Frame 4">
<path id="Rectangle 966" d="M1.65387 0.20003C1.67426 0.084344 1.77478 0 1.89225 0H11.0529C11.2034 0 11.3174 0.135868 11.2912 0.284072L9.68744 9.38211C9.66705 9.49779 9.56654 9.58214 9.44907 9.58214H0.288452C0.137963 9.58214 0.0239507 9.44627 0.050076 9.29807L1.65387 0.20003Z" fill="var(--fill-0, white)"/>
<g id="Layer_1" clip-path="url(#clip0_7818_74819)">
<path id="Vector" d="M7.52613 7.90944C7.54832 7.77228 7.5734 7.6356 7.59799 7.49893C7.59896 7.48398 7.60402 7.46976 7.6127 7.45771C7.68119 7.39262 7.7504 7.32875 7.82129 7.26318C7.82443 7.26029 7.82828 7.25764 7.83214 7.25571C7.85481 7.24462 7.88206 7.25402 7.89315 7.27644C7.99564 7.48929 8.09812 7.70238 8.20061 7.91546C8.20688 7.93668 8.22689 7.9509 8.24908 7.94969C8.49673 7.94776 8.3711 7.94969 8.61875 7.94777C8.6337 7.94777 8.61272 7.92294 8.60886 7.91619C8.46128 7.62259 8.31443 7.32851 8.16564 7.03563C8.15093 7.00718 8.16564 6.99634 8.18228 6.98115C8.38846 6.79072 8.59488 6.60029 8.80154 6.41058L8.80298 6.40962C8.81215 6.40118 8.83385 6.3819 8.83144 6.37226H8.78851C8.65227 6.37202 8.51626 6.37346 8.37978 6.37202C8.35108 6.37057 8.32311 6.38142 8.30285 6.40191C8.11331 6.58269 7.92378 6.76252 7.73376 6.94186C7.72291 6.95174 7.71157 6.96114 7.69228 6.97826C7.72676 6.7806 7.75932 6.59209 7.79235 6.40191C7.79235 6.4007 7.79284 6.39925 7.79284 6.39781C7.79284 6.38527 7.78271 6.37515 7.77017 6.37515H7.4509C7.4398 6.37515 7.4304 6.38334 7.42871 6.39443C7.33708 6.91221 7.24568 7.42758 7.15381 7.94632C7.17889 7.94801 7.346 7.95259 7.42292 7.95259C7.50564 7.95259 7.5189 7.95307 7.52613 7.90896V7.90944Z" fill="var(--fill-0, #4100CF)"/>
<path id="Vector_2" d="M6.87138 7.17406V7.17358C6.86728 7.17093 6.86367 7.16731 6.86101 7.16321C6.85089 7.14731 6.85547 7.12609 6.87138 7.11597C6.99871 7.03931 7.07587 6.90095 7.07394 6.75246C7.07033 6.55022 6.91792 6.37329 6.61288 6.37329H5.89669C5.88005 6.37329 5.86582 6.3851 5.86293 6.40149L5.59912 7.90252C5.59887 7.90445 5.59863 7.90662 5.59863 7.90854C5.59863 7.92735 5.61407 7.94277 5.63288 7.94253H6.33677C6.6558 7.94253 6.96012 7.84852 7.02089 7.53226C7.05176 7.39318 6.99195 7.24975 6.87138 7.17382V7.17406ZM6.38476 7.68461H5.96396C5.96179 7.68461 5.95986 7.68461 5.95769 7.68413C5.93913 7.68051 5.92683 7.66267 5.9302 7.64387L5.99796 7.29073C6.0011 7.27458 6.01509 7.26301 6.03148 7.26277H6.45614V7.26325C6.57068 7.26325 6.71416 7.32159 6.71657 7.45368C6.71898 7.64146 6.51473 7.68413 6.38476 7.68413V7.68461ZM6.5034 7.00364H6.09129C6.08912 7.00364 6.08695 7.00364 6.08502 7.00316C6.06645 6.99978 6.05415 6.98194 6.05753 6.96338L6.11251 6.65749C6.1154 6.6411 6.12963 6.62929 6.14603 6.62929H6.56634C6.71151 6.62929 6.78843 6.69678 6.78843 6.79995C6.78843 6.90312 6.69197 7.00388 6.5034 7.00388V7.00364Z" fill="var(--fill-0, #4100CF)"/>
</g>
<g id="Mask group">
<mask id="mask0_7818_74819" style="mask-type:alpha" maskUnits="userSpaceOnUse" x="0" y="0" width="12" height="10">
<path id="Rectangle 967" d="M1.65387 0.20003C1.67426 0.0843439 1.77478 0 1.89225 0H11.0529C11.2034 0 11.3174 0.135868 11.2912 0.284072L9.68744 9.38211C9.66705 9.49779 9.56654 9.58214 9.44907 9.58214H0.288452C0.137963 9.58214 0.0239507 9.44627 0.050076 9.29807L1.65387 0.20003Z" fill="var(--fill-0, #0E2B72)"/>
</mask>
<g mask="url(#mask0_7818_74819)">
<path id="Vector_3" d="M1.20605 9.6301C2.03314 4.97302 6.50576 1.19781 11.1961 1.19781" stroke="var(--stroke-0, #4100CF)" stroke-width="0.38259" stroke-miterlimit="10"/>
</g>
</g>
</g>
<defs>
<clipPath id="clip0_7818_74819">
<rect width="3.23348" height="1.58105" fill="white" transform="translate(5.59863 6.37207)"/>
</clipPath>
</defs>
</svg>
