<svg preserveAspectRatio="none" width="100%" height="100%" overflow="visible" style="display: block;" viewBox="0 0 32.0381 32.0391" fill="none" xmlns="http://www.w3.org/2000/svg">
<g id="Logo">
<path id="Union" d="M18.0723 30.5293C18.3925 30.5528 18.6628 30.7983 18.7061 31.1289C18.7553 31.507 18.4884 31.8539 18.1104 31.9033C17.4257 31.9926 16.7269 32.0391 16.0186 32.0391C15.3104 32.039 14.6122 31.9926 13.9277 31.9033C13.5498 31.8538 13.2829 31.5069 13.332 31.1289C13.3444 31.0344 13.3755 30.9465 13.4209 30.8691C13.4436 30.8304 13.4696 30.794 13.499 30.7607C13.5871 30.6611 13.7034 30.5878 13.833 30.5518C13.9194 30.5278 14.012 30.5209 14.1064 30.5332C14.7317 30.6148 15.3704 30.6562 16.0186 30.6562C16.5048 30.6562 16.9861 30.6332 17.46 30.5869L17.9316 30.5332C17.9791 30.527 18.0263 30.5259 18.0723 30.5293ZM1.03125 19.3213C1.39962 19.223 1.77751 19.4422 1.87598 19.8105C2.04174 20.4306 2.24768 21.0344 2.49023 21.6191C2.49068 21.6202 2.49175 21.621 2.49219 21.6221C2.98544 22.8115 3.63123 23.9223 4.40527 24.9297C4.40613 24.9308 4.40638 24.9325 4.40723 24.9336C5.18456 25.9446 6.09175 26.8513 7.10254 27.6289C7.10441 27.6303 7.10654 27.6314 7.1084 27.6328C8.11542 28.4067 9.226 29.0527 10.415 29.5459C11.0014 29.7891 11.6067 29.9959 12.2285 30.1621C12.5969 30.2607 12.8153 30.6394 12.7168 31.0078C12.6181 31.3759 12.2403 31.5944 11.8721 31.4961C10.5032 31.1301 9.20596 30.5877 8.00781 29.8945C8.00578 29.8934 8.00397 29.8918 8.00195 29.8906C7.54843 29.6281 7.10939 29.3434 6.68555 29.0391L6.2666 28.7285C5.15726 27.876 4.16208 26.8818 3.30957 25.7725C3.30627 25.7682 3.30397 25.7631 3.30078 25.7588C2.88354 25.2147 2.50033 24.6429 2.1543 24.0469C2.15102 24.0415 2.14671 24.0367 2.14355 24.0312C1.45027 22.833 0.907959 21.536 0.541992 20.167C0.443537 19.7987 0.663057 19.42 1.03125 19.3213ZM31.0068 19.3213C31.3752 19.4199 31.5936 19.7986 31.4951 20.167C31.1592 21.4234 30.6729 22.618 30.0596 23.7324C29.6664 24.4468 29.2222 25.1291 28.7285 25.7715L28.7275 25.7725C27.8752 26.8816 26.8806 27.8762 25.7715 28.7285L25.3535 29.0391C24.9277 29.3448 24.486 29.6299 24.0303 29.8936V29.8945C22.8321 30.5877 21.5349 31.1302 20.166 31.4961C19.7978 31.5943 19.4189 31.376 19.3203 31.0078C19.2219 30.6395 19.4414 30.2608 19.8096 30.1621C20.4298 29.9963 21.0342 29.7903 21.6191 29.5479C21.6201 29.5475 21.6211 29.5473 21.6221 29.5469C22.1273 29.3374 22.6179 29.0988 23.0928 28.8359C23.1254 28.8179 23.1579 28.7996 23.1904 28.7812C23.7981 28.4388 24.3796 28.0555 24.9297 27.6328C24.9313 27.6316 24.933 27.6301 24.9346 27.6289C25.9456 26.8513 26.8524 25.9447 27.6299 24.9336C27.6309 24.9323 27.6318 24.931 27.6328 24.9297C28.2134 24.1742 28.7222 23.3604 29.1484 22.499C29.5701 21.6464 29.9108 20.7469 30.1611 19.8105C30.2596 19.4422 30.6385 19.2231 31.0068 19.3213ZM0.910156 13.332C1.28819 13.3814 1.55504 13.7284 1.50586 14.1064C1.42425 14.7321 1.38184 15.371 1.38184 16.0195C1.38185 16.6679 1.42428 17.3061 1.50586 17.9316C1.52441 18.0739 1.49857 18.2118 1.43848 18.3311C1.33907 18.5292 1.14544 18.6762 0.90918 18.707C0.531326 18.7559 0.184216 18.4892 0.134766 18.1113C0.0454492 17.4266 7.36483e-06 16.728 0 16.0195C8.58984e-06 15.3113 0.0455025 14.6132 0.134766 13.9287C0.159397 13.7399 0.258582 13.5785 0.398437 13.4707C0.538741 13.3621 0.720486 13.3074 0.910156 13.332ZM31.1289 13.332C31.507 13.2828 31.8539 13.5497 31.9033 13.9277C31.9703 14.4414 32.0133 14.9627 32.0303 15.4902C32.036 15.6659 32.0381 15.8425 32.0381 16.0195C32.0381 16.3737 32.0277 16.7255 32.0049 17.0742C31.9824 17.4227 31.9479 17.7682 31.9033 18.1104C31.8868 18.2365 31.8355 18.3486 31.7627 18.4424C31.6173 18.6303 31.3803 18.74 31.1279 18.707C30.7502 18.6574 30.4832 18.3104 30.5322 17.9326C30.6138 17.307 30.6562 16.6681 30.6562 16.0195C30.6562 15.3712 30.6138 14.7329 30.5322 14.1074C30.4991 13.8532 30.6114 13.6158 30.8018 13.4707C30.8947 13.3996 31.0046 13.3483 31.1289 13.332ZM11.8721 0.542969C12.2405 0.444696 12.6183 0.663852 12.7168 1.03223C12.8151 1.40054 12.5968 1.77839 12.2285 1.87695C11.6069 2.04314 11.0013 2.24888 10.415 2.49219H10.416C10.3602 2.51532 10.3054 2.54065 10.25 2.56445C10.1556 2.605 10.0611 2.64504 9.96777 2.6875C8.94875 3.15082 7.99159 3.72699 7.11328 4.40137C7.11161 4.40268 7.11008 4.40495 7.1084 4.40625C6.09427 5.18562 5.18461 6.09522 4.40527 7.10938C4.40431 7.11062 4.40233 7.11107 4.40137 7.1123C3.64006 8.10379 3.00439 9.19612 2.51465 10.3643C2.26189 10.9667 2.04707 11.5894 1.87598 12.2295C1.7773 12.5976 1.39949 12.816 1.03125 12.7178C0.663212 12.6192 0.443941 12.2412 0.541992 11.873C0.723377 11.1945 0.948887 10.5335 1.21387 9.89355C1.21463 9.89165 1.21503 9.8896 1.21582 9.8877C1.26465 9.76993 1.31661 9.65344 1.36816 9.53711C1.51327 9.20951 1.66899 8.88782 1.83496 8.57227C1.88587 8.47552 1.9384 8.37975 1.99121 8.28418C2.04197 8.1923 2.09105 8.09955 2.14355 8.00879C2.14481 8.00663 2.14619 8.0041 2.14746 8.00195C2.41022 7.54834 2.69558 7.10947 3 6.68555L3.31055 6.2666C4.05642 5.29611 4.91133 4.4133 5.85645 3.63672L6.2666 3.31055C6.81824 2.88664 7.39851 2.49708 8.00391 2.14648C8.00516 2.14575 8.00656 2.14526 8.00781 2.14453C8.19799 2.0345 8.39186 1.92948 8.58691 1.82715C9.00996 1.60509 9.44346 1.40005 9.8877 1.21582L9.88965 1.21484C10.5305 0.949335 11.1925 0.724642 11.8721 0.542969ZM20.166 0.542969C20.8455 0.724609 21.5077 0.949435 22.1484 1.21484C22.1494 1.21523 22.1504 1.21543 22.1514 1.21582C23.454 1.75599 24.6695 2.4637 25.7715 3.31055L26.1826 3.63672C27.1232 4.40977 27.9734 5.28864 28.7168 6.25391C28.7204 6.25836 28.725 6.26203 28.7285 6.2666C29.5754 7.36867 30.2821 8.58502 30.8223 9.8877C30.8232 9.88987 30.8233 9.89235 30.8242 9.89453C31.089 10.5342 31.3138 11.1947 31.4951 11.873C31.5934 12.2414 31.3751 12.6192 31.0068 12.7178C30.6386 12.8159 30.2597 12.5977 30.1611 12.2295C29.827 10.9795 29.3317 9.79501 28.6982 8.7002C28.6968 8.69768 28.6958 8.69491 28.6943 8.69238C28.3753 8.14204 28.0213 7.6144 27.6357 7.1123C27.6349 7.11127 27.6336 7.11042 27.6328 7.10938C26.8535 6.09523 25.9438 5.18561 24.9297 4.40625C24.9277 4.4047 24.9258 4.40294 24.9238 4.40137C24.4222 4.0163 23.8955 3.66223 23.3457 3.34375C23.3434 3.34246 23.3402 3.34214 23.3379 3.34082C22.8816 3.07683 22.4094 2.83761 21.9238 2.62305C21.8237 2.57884 21.7234 2.5342 21.6221 2.49219C21.621 2.49175 21.6202 2.49068 21.6191 2.49023C21.0343 2.24765 20.4297 2.04274 19.8096 1.87695C19.4415 1.77835 19.2223 1.40037 19.3203 1.03223C19.4188 0.663873 19.7977 0.444737 20.166 0.542969ZM16.0195 0C16.7278 8.64943e-06 17.4258 0.0464767 18.1104 0.135742C18.4884 0.18516 18.7553 0.532074 18.7061 0.910156C18.6628 1.24112 18.3919 1.48579 18.0713 1.50879C18.0256 1.51207 17.9788 1.51201 17.9316 1.50586C17.7752 1.48546 17.618 1.4676 17.46 1.45215C17.1442 1.42126 16.8254 1.40015 16.5039 1.38965C16.3429 1.38439 16.1808 1.38184 16.0186 1.38184C15.6947 1.38186 15.3733 1.39231 15.0547 1.41309C14.7358 1.43389 14.4193 1.46506 14.1064 1.50586C13.9649 1.52423 13.8278 1.49796 13.709 1.43848C13.6294 1.39864 13.5579 1.34404 13.499 1.27734C13.4698 1.24427 13.4435 1.20841 13.4209 1.16992C13.3754 1.09247 13.3444 1.00474 13.332 0.910156C13.3259 0.863014 13.3248 0.816163 13.3281 0.770508C13.338 0.633079 13.3888 0.504607 13.4697 0.399414C13.5237 0.329262 13.5915 0.27001 13.6689 0.224609C13.7462 0.179349 13.8334 0.148117 13.9277 0.135742C14.0989 0.113413 14.2715 0.0939714 14.4443 0.0771484C14.9627 0.0264308 15.4883 8.66196e-06 16.0195 0Z" fill="var(--fill-0, white)"/>
<g id="Group 1">
<g id="Vector">
<path d="M15.619 24.917C20.0389 24.199 22.4001 17.9084 21.7965 18.056C21.1586 18.212 19.4589 19.7255 15.6189 20.8942C13.0595 21.577 10.0801 21.1702 9.73053 21.395C9.09344 21.8046 11.3373 25.6126 15.619 24.917Z" fill="var(--fill-0, white)"/>
<path d="M8.34586 11.2487C8.55327 11.3085 8.78344 11.4223 9.03637 11.5901C9.29371 11.7585 9.54162 11.9503 9.78011 12.1655C10.0186 12.3808 10.2338 12.6045 10.4256 12.8367C10.6224 13.065 10.7659 13.2714 10.8561 13.4561L11.2752 9.84719L8.34586 11.2487ZM9.72095 8.23316C9.4643 8.52044 9.16685 8.73598 8.82861 8.8798C8.49088 9.01922 8.1083 9.06411 7.68088 9.01447C7.37683 8.97917 7.11562 8.90194 6.89723 8.7828C6.67935 8.65925 6.50174 8.51581 6.3644 8.35249C6.23198 8.18527 6.1366 8.00673 6.07827 7.81685C6.02434 7.62749 6.00709 7.44909 6.02654 7.28164C6.04854 7.09217 6.0996 6.92169 6.17971 6.77023C6.26474 6.61486 6.36458 6.48578 6.47923 6.38299C6.5988 6.27629 6.73047 6.20003 6.87423 6.1542C7.01851 6.10397 7.16335 6.0873 7.30876 6.10418C7.42333 6.11749 7.53754 6.15308 7.6514 6.21096C7.76577 6.26443 7.86462 6.3362 7.94794 6.42626C8.03567 6.51684 8.10347 6.62519 8.15135 6.75133C8.19922 6.87747 8.21395 7.01985 8.19553 7.17848C8.17864 7.32389 8.13065 7.46793 8.05157 7.61058C7.9774 7.74934 7.86239 7.87443 7.70654 7.98584C7.95771 8.01501 8.16808 7.97245 8.33766 7.85817C8.50775 7.73948 8.64447 7.58119 8.74784 7.38329C8.85612 7.18151 8.93781 6.95877 8.9929 6.71508C9.05292 6.46749 9.09623 6.22914 9.12284 6L10.2068 6.12588C10.2074 6.31351 10.2242 6.5142 10.2575 6.72795C10.2951 6.94222 10.3524 7.14091 10.4294 7.32402C10.5108 7.50764 10.6132 7.66466 10.7364 7.79509C10.8597 7.92552 11.0095 8.00097 11.1858 8.02144C11.2298 8.02655 11.2786 8.02998 11.332 8.03171C11.3898 8.03396 11.442 8.02662 11.4886 8.00971L11.6874 6.29781L12.8837 6.43674L12.2843 11.5989C12.3771 11.6454 12.4858 11.7094 12.6103 11.7908C12.7398 11.8684 12.8776 11.9692 13.024 12.0934C13.1709 12.2132 13.3259 12.3585 13.4892 12.5293C13.653 12.6956 13.8176 12.8934 13.983 13.1225L14.7344 6.65165L17.3585 6.95637L17.2188 8.15932L15.7911 7.99353L15.0059 14.7552L13.8051 15.0579C13.7035 14.8183 13.5777 14.5938 13.4278 14.3844C13.2829 14.1711 13.1288 13.979 12.9655 13.8082C12.8072 13.6335 12.6502 13.4858 12.4945 13.365C12.3437 13.2403 12.2156 13.1517 12.11 13.0993L11.8821 15.0623L10.6961 15.3533C10.2142 14.4265 9.66613 13.6662 9.05182 13.0724C8.44191 12.479 7.73796 12.0802 6.93997 11.8759L6.38599 10.8201L10.5325 8.9169C10.3632 8.87491 10.2081 8.78768 10.0672 8.6552C9.93066 8.52323 9.81525 8.38256 9.72095 8.23316ZM12.0038 19.7254C11.7094 19.4144 11.4143 19.1479 11.1186 18.9259C10.8267 18.709 10.5246 18.522 10.2124 18.3652C9.90451 18.2089 9.58282 18.0755 9.24731 17.9651C8.91128 17.8591 8.5544 17.7596 8.17667 17.6666L8.15424 16.7061C8.59957 16.6015 9.02528 16.4544 9.43135 16.2649C9.84183 16.0758 10.234 15.8333 10.6077 15.5373L10.7267 14.5128L11.9297 14.6525L11.7516 16.186C11.6988 16.2558 11.6178 16.3379 11.5086 16.4324C11.4038 16.5274 11.2877 16.6233 11.1603 16.7202C11.033 16.8171 10.9044 16.9048 10.7747 16.9836C10.645 17.0623 10.5316 17.1161 10.4344 17.145C10.6769 17.2491 10.9002 17.3643 11.1044 17.4908C11.308 17.6216 11.5015 17.7624 11.685 17.9132C11.8684 18.064 12.0462 18.2254 12.2183 18.3972C12.3898 18.5734 12.5648 18.759 12.7431 18.9538L12.0038 19.7254Z" fill="var(--fill-0, white)"/>
<path d="M16.272 8.04244L16.4114 6.84222L25.9802 7.9534L25.8408 9.15362L16.272 8.04244ZM20.5699 10.9743C20.6023 11.0405 20.6495 11.095 20.7113 11.1378C20.7776 11.1812 20.8446 11.2179 20.9124 11.248C20.9851 11.2743 21.052 11.2932 21.113 11.3048C21.1784 11.3168 21.2244 11.3244 21.2507 11.3274C21.4881 11.355 21.7123 11.3432 21.9232 11.2919C22.1346 11.2363 22.3337 11.1524 22.5205 11.0405C22.7073 10.9285 22.879 10.7925 23.0357 10.6324C23.1974 10.4685 23.3471 10.2921 23.4849 10.1031L24.785 10.6484L24.7643 10.8265C24.7107 11.2881 24.6276 11.7352 24.515 12.1677C24.4024 12.6002 24.2572 13.0066 24.0793 13.3869C23.9059 13.7678 23.6986 14.1136 23.4576 14.4242C23.2171 14.7305 22.9421 14.9882 22.6326 15.1973C22.3276 15.4069 21.9869 15.559 21.6106 15.6534C21.2391 15.7439 20.8292 15.7632 20.3808 15.7111C19.8884 15.6539 19.4423 15.5241 19.0425 15.3217C18.6427 15.1194 18.2894 14.8622 17.9825 14.5503C17.6756 14.2385 17.4117 13.8825 17.1908 13.4826C16.9699 13.0827 16.7963 12.6593 16.67 12.2124C16.5437 11.7655 16.4592 11.3035 16.4166 10.8262C16.3789 10.3451 16.3873 9.8693 16.442 9.39889L17.6676 9.43428C17.6271 9.82168 17.6198 10.2107 17.6457 10.6014C17.6717 10.992 17.7282 11.3684 17.8154 11.7305C17.9069 12.0932 18.0299 12.4349 18.1842 12.7558C18.3434 13.0729 18.5334 13.3556 18.7541 13.604C18.9796 13.8485 19.2392 14.0502 19.5326 14.209C19.8261 14.3679 20.1552 14.4685 20.5201 14.5109C20.8103 14.5446 21.0819 14.5271 21.3349 14.4584C21.588 14.3898 21.8182 14.2873 22.0256 14.151C22.238 14.0108 22.427 13.8411 22.5927 13.6421C22.7628 13.4435 22.9075 13.233 23.0269 13.0108C23.1512 12.7846 23.2496 12.551 23.3222 12.3099C23.3991 12.0693 23.4506 11.8369 23.4767 11.6127C23.3078 11.7624 23.136 11.8984 22.9614 12.0207C22.7873 12.1386 22.6043 12.2376 22.4123 12.3178C22.2208 12.3936 22.0187 12.4459 21.8059 12.4746C21.5932 12.5034 21.3637 12.5035 21.1175 12.4749C20.7746 12.4351 20.4713 12.3419 20.2076 12.1955C19.9488 12.0451 19.7334 11.8664 19.5614 11.6593C19.3894 11.4521 19.2636 11.2304 19.1841 10.9939C19.1091 10.7579 19.084 10.5322 19.1091 10.3168C19.1376 10.0706 19.1973 9.86366 19.2881 9.69598C19.3838 9.5244 19.4954 9.3881 19.623 9.28707C19.7549 9.18654 19.8965 9.11833 20.0477 9.08242C20.1995 9.04211 20.3479 9.03038 20.4929 9.04723C20.6204 9.06204 20.7407 9.10051 20.8538 9.16266C20.9718 9.22092 21.0719 9.29937 21.154 9.39802C21.241 9.49278 21.3059 9.60503 21.3488 9.73477C21.3917 9.86451 21.4039 10.0085 21.3855 10.1668C21.3768 10.2415 21.352 10.3211 21.311 10.4054C21.27 10.4898 21.2139 10.5701 21.1427 10.6465C21.0758 10.7234 20.9943 10.7919 20.8982 10.8521C20.8027 10.9078 20.6932 10.9486 20.5699 10.9743Z" fill="var(--fill-0, white)"/>
</g>
</g>
</g>
</svg>
