<svg preserveAspectRatio="none" width="100%" height="100%" overflow="visible" style="display: block;" viewBox="0 0 24.029 24.0293" fill="none" xmlns="http://www.w3.org/2000/svg">
<g id="Logo">
<path id="Union" d="M13.5543 22.8975C13.5977 22.9006 13.6392 22.9114 13.6793 22.9248C13.8614 22.9858 14.0034 23.1436 14.0299 23.3467C14.0601 23.5786 13.9301 23.7924 13.7272 23.8838C13.707 23.8929 13.6863 23.9008 13.6647 23.9072C13.638 23.9153 13.6112 23.924 13.5827 23.9277C13.2035 23.9772 12.8185 24.0082 12.4293 24.0215C12.4212 24.0218 12.4131 24.0222 12.4049 24.0225C12.2752 24.0266 12.145 24.0293 12.0143 24.0293C11.4831 24.0293 10.9594 23.9947 10.4459 23.9277C10.2331 23.9 10.0671 23.7465 10.0133 23.5518C9.99532 23.487 9.99044 23.4175 9.99965 23.3467C10.0043 23.3114 10.012 23.2775 10.0231 23.2451C10.0567 23.1473 10.118 23.0636 10.1969 23.0029C10.2231 22.9828 10.2513 22.965 10.2809 22.9502C10.3402 22.9205 10.4058 22.9025 10.4743 22.8975C10.5089 22.8949 10.5449 22.8957 10.5807 22.9004C11.0496 22.9615 11.5282 22.9922 12.0143 22.9922C12.5006 22.9922 12.9797 22.9616 13.4489 22.9004C13.4845 22.8958 13.5198 22.8949 13.5543 22.8975ZM0.773092 14.4912C1.04936 14.4175 1.33397 14.5812 1.40786 14.8574C1.53224 15.3227 1.68686 15.7759 1.8688 16.2148L1.86977 16.2168C2.23969 17.1088 2.72387 17.9418 3.30434 18.6973C3.88878 19.4577 4.57121 20.1402 5.33169 20.7246C5.95437 21.2031 6.6305 21.6154 7.34829 21.9531C7.443 21.9976 7.53826 22.0411 7.63442 22.083C7.69374 22.1089 7.75328 22.1353 7.81313 22.1602C7.8142 22.1606 7.815 22.1617 7.81606 22.1621C8.25422 22.3435 8.70703 22.4969 9.17153 22.6211C9.44775 22.6951 9.61257 22.9796 9.53872 23.2559C9.46486 23.5321 9.18024 23.6958 8.90395 23.6221C8.39505 23.486 7.89943 23.3169 7.41958 23.1182C7.41835 23.1177 7.4169 23.1177 7.41567 23.1172C6.44386 22.7142 5.53657 22.1864 4.71352 21.5557C4.70914 21.5525 4.70416 21.5502 4.69985 21.5469C3.97172 20.9873 3.30965 20.3458 2.72719 19.6367L2.48305 19.3291C2.16538 18.9157 1.87357 18.481 1.61098 18.0273C1.61016 18.026 1.60887 18.0248 1.60805 18.0234C1.08806 17.1247 0.681362 16.1518 0.406881 15.125C0.3331 14.8488 0.497032 14.5653 0.773092 14.4912ZM23.2555 14.4912C23.5316 14.5653 23.6956 14.8488 23.6217 15.125C23.4867 15.6302 23.3185 16.122 23.1217 16.5986C23.1199 16.6033 23.1197 16.6086 23.1178 16.6133C22.9362 17.0514 22.727 17.4756 22.4967 17.8857C22.471 17.9315 22.4468 17.9781 22.4206 18.0234C22.4197 18.025 22.4175 18.0258 22.4166 18.0273C22.154 18.4806 21.864 18.916 21.5465 19.3291L21.3014 19.6367C20.7191 20.3454 20.0574 20.9866 19.3297 21.5459L19.0153 21.7793C18.6963 22.0084 18.3655 22.2223 18.0241 22.4199L18.0231 22.4209C17.8036 22.5479 17.5793 22.668 17.3512 22.7813C17.1099 22.9011 16.8641 23.0134 16.6139 23.1172C16.6113 23.1183 16.6077 23.1181 16.6051 23.1191C16.1263 23.3172 15.6323 23.4864 15.1247 23.6221C14.8484 23.6959 14.5649 23.532 14.4909 23.2559C14.417 22.9795 14.5807 22.695 14.8571 22.6211C15.5239 22.4428 16.1654 22.2024 16.776 21.9082C17.4584 21.579 18.1026 21.182 18.6979 20.7246C19.4584 20.1401 20.1408 19.4578 20.7252 18.6973C21.058 18.2642 21.3574 17.8046 21.6237 17.3242C22.0503 16.5536 22.3883 15.727 22.6207 14.8574C22.6946 14.5811 22.9792 14.4173 23.2555 14.4912ZM0.683249 9.99902C0.96653 10.0363 1.1664 10.2967 1.12954 10.5801C1.06834 11.0493 1.03677 11.5283 1.03676 12.0146C1.03677 12.501 1.06834 12.98 1.12954 13.4492C1.15258 13.6263 1.08297 13.7943 0.958639 13.9043C0.920076 13.9386 0.874902 13.9646 0.826803 13.9863C0.805365 13.9959 0.783402 14.004 0.760397 14.0107C0.734934 14.0182 0.709408 14.0267 0.682272 14.0303C0.398693 14.0672 0.139233 13.8666 0.102194 13.583C0.0854623 13.4547 0.0699269 13.3258 0.057272 13.1963C0.019282 12.8075 0.000636132 12.4132 0.000631332 12.0146C0.000636591 11.4834 0.0352332 10.9597 0.102194 10.4463C0.106843 10.4107 0.11436 10.3764 0.125631 10.3438C0.173524 10.2048 0.278395 10.0959 0.408834 10.0391C0.492265 10.0025 0.586442 9.9864 0.683249 9.99902ZM23.3473 9.99902C23.4535 9.98531 23.5562 10.0051 23.6452 10.0498C23.7939 10.1242 23.9043 10.2691 23.9274 10.4463L23.9713 10.833C23.984 10.9626 23.9941 11.0929 24.0026 11.2236C24.0196 11.4852 24.0289 11.7489 24.029 12.0146C24.0289 12.2803 24.0196 12.5442 24.0026 12.8057C23.9941 12.9364 23.984 13.0667 23.9713 13.1963C23.9587 13.3258 23.9441 13.4547 23.9274 13.583C23.9227 13.6186 23.9142 13.6529 23.903 13.6855C23.8805 13.7505 23.8454 13.8086 23.8014 13.8584C23.7317 13.9373 23.6387 13.9925 23.5348 14.0176C23.4746 14.0322 23.4114 14.0387 23.3463 14.0303C23.0628 13.9932 22.8631 13.7328 22.9 13.4492C22.9612 12.98 22.9928 12.501 22.9928 12.0146C22.9928 11.5283 22.9612 11.0493 22.9 10.5801C22.8792 10.4198 22.935 10.2683 23.0377 10.1592C23.0868 10.1068 23.1464 10.0646 23.2145 10.0361C23.2361 10.0271 23.2587 10.0207 23.2819 10.0146C23.3032 10.009 23.3249 10.0019 23.3473 9.99902ZM8.90395 0.407227C9.18015 0.33352 9.46474 0.49732 9.53872 0.773438C9.61249 1.0497 9.44773 1.33425 9.17153 1.4082C8.70186 1.53376 8.24404 1.68887 7.80141 1.87305C6.91516 2.24168 6.08686 2.72313 5.33559 3.2998C5.334 3.30106 5.3333 3.30345 5.33169 3.30469C4.571 3.88924 3.8889 4.57135 3.30434 5.33203C3.3034 5.33325 3.30138 5.33375 3.30044 5.33496C3.01167 5.71109 2.7462 6.1062 2.50747 6.51855C2.50634 6.52056 2.50667 6.52339 2.50551 6.52539C2.03044 7.34647 1.65847 8.23441 1.40786 9.17188C1.33401 9.44816 1.04938 9.61277 0.773092 9.53906C0.496904 9.46507 0.333033 9.18057 0.406881 8.9043C0.598955 8.18579 0.857344 7.4946 1.17251 6.83594C1.47895 6.19547 1.83935 5.58605 2.24965 5.01465L2.48305 4.7002C3.12232 3.86839 3.86804 3.12266 4.69985 2.4834H4.69887L4.70083 2.48242C5.38805 1.95437 6.13482 1.5003 6.92837 1.12891C7.08542 1.05541 7.24327 0.982832 7.40395 0.916016C7.40759 0.914502 7.41203 0.913619 7.41567 0.912109C7.41701 0.911554 7.41823 0.910699 7.41958 0.910156C7.89934 0.711442 8.39516 0.543238 8.90395 0.407227ZM15.1247 0.407227C15.6322 0.542905 16.1264 0.711188 16.6051 0.90918C16.6079 0.91026 16.6112 0.910979 16.6139 0.912109C16.7805 0.981188 16.9444 1.0556 17.1071 1.13184C17.3483 1.24486 17.5849 1.36587 17.817 1.49414C18.3466 1.78668 18.8531 2.11617 19.3297 2.48242C19.3337 2.4855 19.3366 2.48999 19.3405 2.49316C20.1676 3.13045 20.9103 3.87226 21.5465 4.7002L21.779 5.01465C22.3116 5.7561 22.7633 6.56029 23.1178 7.41504C23.12 7.42037 23.1207 7.42628 23.1227 7.43164C23.3194 7.90786 23.4868 8.39951 23.6217 8.9043C23.6955 9.18055 23.5317 9.4651 23.2555 9.53906C22.9792 9.61293 22.6947 9.44817 22.6207 9.17188C22.4015 8.35158 22.0897 7.56885 21.6969 6.83594L21.5241 6.52539C21.2842 6.11081 21.0184 5.71297 20.7282 5.33496C20.7273 5.33388 20.7261 5.33312 20.7252 5.33203C20.1408 4.5715 19.4584 3.88917 18.6979 3.30469C18.6961 3.30334 18.6947 3.30117 18.693 3.2998C18.2965 2.99547 17.8776 2.71941 17.4411 2.4707C17.1949 2.33044 16.9428 2.19944 16.6852 2.07813C16.6236 2.04911 16.5619 2.02009 16.4997 1.99219C15.9727 1.75599 15.4239 1.55972 14.8571 1.4082C14.5808 1.33429 14.417 1.04977 14.4909 0.773438C14.5649 0.49738 14.8485 0.333446 15.1247 0.407227ZM12.0153 0C12.5464 2.75712e-05 13.0703 0.0345985 13.5836 0.101563C13.6544 0.110856 13.7201 0.133976 13.778 0.167969C13.9522 0.269889 14.0576 0.470007 14.0299 0.682617C14.016 0.789033 13.9701 0.883305 13.904 0.958008C13.816 1.0575 13.6914 1.12186 13.5543 1.13184C13.5198 1.13438 13.4845 1.13354 13.4489 1.12891C12.9797 1.06772 12.5006 1.03614 12.0143 1.03613C11.5282 1.03615 11.0496 1.06777 10.5807 1.12891C10.5449 1.13358 10.509 1.13344 10.4743 1.13086C10.4693 1.1305 10.4645 1.12941 10.4596 1.12891C10.4058 1.12335 10.3545 1.10994 10.3063 1.08887C10.1454 1.01861 10.0241 0.86951 9.99965 0.682617C9.98578 0.576168 10.0047 0.472943 10.0495 0.383789C10.1024 0.278384 10.1915 0.193998 10.3014 0.144531C10.3228 0.134957 10.3449 0.126791 10.3678 0.120117C10.3933 0.112642 10.4197 0.105109 10.4469 0.101563C10.9602 0.0346392 11.4842 -4.47669e-08 12.0153 0Z" fill="var(--fill-0, white)"/>
<g id="Group 1">
<g id="Vector">
<path d="M11.7143 18.6879C15.0293 18.1494 16.8001 13.4314 16.3474 13.5421C15.869 13.6591 14.5943 14.7943 11.7143 15.6708C9.79469 16.1829 7.56016 15.8778 7.29795 16.0464C6.82014 16.3536 8.50304 19.2096 11.7143 18.6879Z" fill="var(--fill-0, white)"/>
<path d="M6.25945 8.43668C6.41501 8.48154 6.58764 8.5669 6.77733 8.69276C6.97034 8.819 7.15627 8.96285 7.33514 9.12429C7.514 9.28574 7.67538 9.45353 7.81928 9.62766C7.96687 9.79887 8.07449 9.95372 8.14215 10.0922L8.45646 7.38555L6.25945 8.43668ZM7.29077 6.17503C7.09828 6.39048 6.87519 6.55214 6.62151 6.66001C6.36821 6.76457 6.08128 6.79823 5.76071 6.76101C5.53268 6.73453 5.33676 6.67661 5.17297 6.58725C5.00957 6.49459 4.87636 6.38701 4.77335 6.26452C4.67404 6.13911 4.60251 6.0052 4.55875 5.86279C4.51831 5.72077 4.50537 5.58697 4.51996 5.46139C4.53646 5.31928 4.57475 5.19142 4.63484 5.07782C4.69861 4.9613 4.77349 4.86449 4.85948 4.78739C4.94916 4.70737 5.04791 4.65018 5.15573 4.61581C5.26393 4.57813 5.37257 4.56563 5.48163 4.57829C5.56755 4.58827 5.65321 4.61496 5.7386 4.65837C5.82438 4.69848 5.89851 4.7523 5.96101 4.81985C6.02681 4.88778 6.07766 4.96905 6.11356 5.06365C6.14947 5.15825 6.16051 5.26504 6.1467 5.38401C6.13403 5.49307 6.09804 5.6011 6.03873 5.70809C5.9831 5.81216 5.89684 5.90598 5.77996 5.98953C5.96834 6.01141 6.12611 5.97949 6.2533 5.89378C6.38086 5.80476 6.48341 5.68604 6.56093 5.53762C6.64214 5.38628 6.70341 5.21923 6.74473 5.03646C6.78974 4.85077 6.82222 4.672 6.84218 4.50015L7.65517 4.59456C7.65557 4.73528 7.66824 4.8858 7.69316 5.04612C7.72139 5.20682 7.76438 5.35583 7.82212 5.49316C7.88316 5.63088 7.95992 5.74865 8.05239 5.84647C8.14486 5.94429 8.25719 6.00088 8.38939 6.01623C8.42243 6.02007 8.45898 6.02264 8.49902 6.02394C8.54237 6.02562 8.58152 6.02012 8.61649 6.00743L8.76559 4.72351L9.66285 4.8277L9.21326 8.69931C9.28289 8.73419 9.3644 8.78217 9.45779 8.84326C9.55487 8.90142 9.65829 8.97707 9.76805 9.0702C9.8782 9.16003 9.9945 9.26899 10.1169 9.39709C10.2398 9.52189 10.3632 9.6702 10.4873 9.84203L11.0509 4.98889L13.0189 5.21743L12.9141 6.11965L11.8434 5.9953L11.2545 11.0666L10.3539 11.2936C10.2776 11.1139 10.1833 10.9455 10.0709 10.7884C9.96223 10.6284 9.84666 10.4844 9.72421 10.3563C9.60545 10.2253 9.48769 10.1145 9.37093 10.0239C9.25786 9.93037 9.16175 9.86394 9.08258 9.8246L8.91161 11.2969L8.02212 11.5152C7.66072 10.8201 7.24965 10.2498 6.78892 9.80443C6.33148 9.35943 5.80352 9.06031 5.20503 8.90708L4.78954 8.11526L7.89942 6.68783C7.77245 6.65633 7.65612 6.59091 7.55043 6.49155C7.44805 6.39258 7.36149 6.28707 7.29077 6.17503ZM9.00287 14.7942C8.7821 14.5609 8.56081 14.361 8.33898 14.1946C8.12007 14.0319 7.89352 13.8917 7.65932 13.7741C7.42843 13.6568 7.18717 13.5568 6.93553 13.474C6.68351 13.3945 6.41586 13.3198 6.13256 13.2501L6.11573 12.5297C6.44973 12.4513 6.76901 12.341 7.07356 12.1988C7.38142 12.057 7.67552 11.8752 7.95585 11.6532L8.04508 10.8848L8.9473 10.9896L8.81375 12.1396C8.77417 12.192 8.71343 12.2536 8.63151 12.3245C8.5529 12.3957 8.46583 12.4677 8.37031 12.5403C8.27479 12.6129 8.17839 12.6788 8.0811 12.7378C7.98381 12.7969 7.89874 12.8372 7.82588 12.8589C8.00773 12.937 8.17521 13.0234 8.32832 13.1182C8.48105 13.2163 8.62621 13.322 8.76379 13.4351C8.90138 13.5482 9.03471 13.6692 9.16376 13.798C9.29244 13.9302 9.42365 14.0694 9.5574 14.2155L9.00287 14.7942Z" fill="var(--fill-0, white)"/>
<path d="M12.2041 6.03198L12.3086 5.13181L19.4852 5.9652L19.3807 6.86537L12.2041 6.03198ZM15.4275 8.23091C15.4518 8.28052 15.4872 8.32139 15.5336 8.35351C15.5832 8.38602 15.6335 8.41358 15.6844 8.43619C15.7389 8.45589 15.789 8.47006 15.8348 8.47872C15.8839 8.48776 15.9183 8.49343 15.9381 8.49573C16.1162 8.51641 16.2843 8.50752 16.4425 8.46908C16.601 8.42735 16.7504 8.36448 16.8904 8.2805C17.0305 8.19651 17.1593 8.09451 17.2769 7.97448C17.3981 7.85155 17.5104 7.71922 17.6137 7.5775L18.5888 7.98648L18.5733 8.12002C18.5331 8.46624 18.4707 8.80153 18.3863 9.1259C18.3018 9.45027 18.1929 9.75509 18.0595 10.0404C17.9295 10.326 17.774 10.5853 17.5933 10.8183C17.4129 11.048 17.2066 11.2413 16.9745 11.3981C16.7457 11.5553 16.4902 11.6694 16.208 11.7402C15.9294 11.8081 15.622 11.8225 15.2856 11.7835C14.9163 11.7406 14.5818 11.6432 14.2819 11.4915C13.9821 11.3397 13.7171 11.1468 13.4869 10.9129C13.2568 10.679 13.0589 10.4121 12.8932 10.1121C12.7275 9.81217 12.5973 9.49461 12.5025 9.15946C12.4078 8.8243 12.3444 8.47776 12.3125 8.11982C12.2842 7.75896 12.2906 7.40213 12.3315 7.04932L13.2508 7.07586C13.2204 7.36641 13.2149 7.65818 13.2344 7.95117C13.2538 8.24416 13.2962 8.52646 13.3616 8.79805C13.4302 9.07002 13.5225 9.32635 13.6382 9.56703C13.7576 9.8048 13.9001 10.0168 14.0656 10.2031C14.2348 10.3865 14.4294 10.5378 14.6495 10.6569C14.8696 10.7761 15.1165 10.8515 15.3902 10.8833C15.6078 10.9086 15.8115 10.8955 16.0013 10.844C16.191 10.7925 16.3637 10.7156 16.5193 10.6134C16.6785 10.5082 16.8203 10.381 16.9446 10.2317C17.0721 10.0828 17.1807 9.92494 17.2702 9.75822C17.3635 9.58859 17.4373 9.41337 17.4917 9.23255C17.5494 9.05211 17.588 8.87781 17.6075 8.70965C17.4809 8.82192 17.3521 8.92393 17.2211 9.01566C17.0905 9.10409 16.9533 9.17838 16.8093 9.23852C16.6657 9.29536 16.5141 9.33456 16.3545 9.35614C16.1949 9.37771 16.0228 9.37777 15.8382 9.35633C15.581 9.32646 15.3535 9.2566 15.1557 9.14675C14.9616 9.03398 14.8001 8.89993 14.6711 8.7446C14.5421 8.58926 14.4478 8.42292 14.3882 8.24557C14.3319 8.0686 14.3131 7.89933 14.3318 7.73776C14.3533 7.55311 14.398 7.3979 14.4661 7.27213C14.5379 7.14345 14.6216 7.04123 14.7173 6.96545C14.8163 6.89006 14.9225 6.8389 15.0359 6.81197C15.1496 6.78174 15.2609 6.77294 15.3698 6.78558C15.4654 6.79668 15.5556 6.82554 15.6404 6.87215C15.7289 6.91584 15.804 6.97468 15.8655 7.04867C15.9308 7.11974 15.9795 7.20393 16.0117 7.30123C16.0438 7.39853 16.053 7.50654 16.0392 7.62524C16.0327 7.68129 16.0141 7.74095 15.9833 7.80422C15.9526 7.86749 15.9105 7.92776 15.8571 7.98505C15.8069 8.04272 15.7458 8.09411 15.6737 8.13921C15.602 8.18101 15.52 8.21158 15.4275 8.23091Z" fill="var(--fill-0, white)"/>
</g>
</g>
</g>
</svg>
